<svg width="169" height="163" viewBox="0 0 169 163" fill="none" xmlns="http://www.w3.org/2000/svg">
<path fill-rule="evenodd" clip-rule="evenodd" d="M51.6168 13.584H117.316C141.257 13.584 154.918 26.624 154.918 49.7836V113.218C154.918 136.242 141.328 149.417 117.386 149.417H51.6168C27.6047 149.417 14.0847 136.242 14.0847 113.218V49.7836C14.0847 26.624 27.6047 13.584 51.6168 13.584ZM90.2756 87.1378H110.274C113.513 87.0699 116.118 84.5569 116.118 81.4328C116.118 78.3086 113.513 75.7957 110.274 75.7957H90.2756V56.6432C90.2756 53.519 87.6701 51.0061 84.431 51.0061C81.1918 51.0061 78.5864 53.519 78.5864 56.6432V75.7957H58.6585C57.1093 75.7957 55.6306 76.4069 54.5039 77.4257C53.4476 78.5124 52.8139 79.9318 52.8139 81.4328C52.8139 84.5569 55.4193 87.0699 58.6585 87.1378H78.5864V106.358C78.5864 109.482 81.1918 111.995 84.431 111.995C87.6701 111.995 90.2756 109.482 90.2756 106.358V87.1378Z" fill="#130F26"/>
</svg>
