<svg width="44" height="44" viewBox="0 0 44 44" fill="none" xmlns="http://www.w3.org/2000/svg">
<path fill-rule="evenodd" clip-rule="evenodd" d="M8.33094 8.00716C8.83002 6.50991 10.2312 5.5 11.8094 5.5H32.1905C33.7688 5.5 35.17 6.50991 35.669 8.00716L40.1452 21.4355C40.2698 21.8094 40.3333 22.2009 40.3333 22.595V34.8333C40.3333 36.8584 38.6917 38.5 36.6667 38.5H7.33332C5.30828 38.5 3.66666 36.8584 3.66666 34.8333V22.595C3.66666 22.2009 3.73019 21.8094 3.85482 21.4355L8.33094 8.00716ZM11.8094 9.16667H32.1905L36.4683 22H31.1667C29.4541 22 28.1366 22.4392 27.0875 23.226C26.1452 23.9328 25.5361 24.848 25.1064 25.4936L25.0579 25.5664C24.5733 26.2932 24.2759 26.7098 23.8792 27.0073C23.5533 27.2517 23.0375 27.5 22 27.5C20.9625 27.5 20.4467 27.2517 20.1208 27.0073C19.7241 26.7098 19.4266 26.2932 18.9421 25.5664L18.8936 25.4936C18.4639 24.848 17.8548 23.9328 16.9125 23.226C15.8634 22.4392 14.5458 22 12.8333 22H7.53166L11.8094 9.16667ZM7.33332 25.6667V34.8333H36.6667V25.6667H31.1667C30.1292 25.6667 29.6134 25.915 29.2875 26.1594C28.8908 26.4569 28.5933 26.8735 28.1087 27.6003L28.0603 27.6731C27.6306 28.3187 27.0214 29.2339 26.0792 29.9406C25.03 30.7275 23.7125 31.1667 22 31.1667C20.2875 31.1667 18.9699 30.7275 17.9208 29.9406C16.9785 29.2339 16.3694 28.3187 15.9397 27.6731L15.8912 27.6003C15.4067 26.8735 15.1092 26.4569 14.7125 26.1594C14.3866 25.915 13.8708 25.6667 12.8333 25.6667H7.33332Z" fill="white"/>
</svg>
