<svg width="38" height="38" viewBox="0 0 38 38" fill="none" xmlns="http://www.w3.org/2000/svg">
<path d="M9.49996 12.6667C9.49996 11.7922 10.2088 11.0833 11.0833 11.0833H26.9166C27.7911 11.0833 28.5 11.7922 28.5 12.6667C28.5 13.5411 27.7911 14.25 26.9166 14.25H11.0833C10.2088 14.25 9.49996 13.5411 9.49996 12.6667Z" fill="white"/>
<path d="M11.0833 17.4167C10.2088 17.4167 9.49996 18.1256 9.49996 19C9.49996 19.8745 10.2088 20.5833 11.0833 20.5833H17.4166C18.2911 20.5833 19 19.8745 19 19C19 18.1256 18.2911 17.4167 17.4166 17.4167H11.0833Z" fill="white"/>
<path fill-rule="evenodd" clip-rule="evenodd" d="M28.5 26.9167H31.6666C33.4155 26.9167 34.8333 25.4989 34.8333 23.75V7.91667C34.8333 6.16777 33.4155 4.75 31.6666 4.75H6.33329C4.58439 4.75 3.16663 6.16776 3.16663 7.91667V23.75C3.16663 25.4989 4.58439 26.9167 6.33329 26.9167H19V30.0833C19 33.1265 22.874 34.4179 24.7 31.9833L28.5 26.9167ZM22.1666 23.75V30.0833L26.9166 23.75H31.6666V7.91667H6.33329V23.75H22.1666Z" fill="white"/>
</svg>
