<svg width="44" height="44" viewBox="0 0 44 44" fill="none" xmlns="http://www.w3.org/2000/svg">
<path fill-rule="evenodd" clip-rule="evenodd" d="M20.782 4.12975C21.4766 3.51231 22.5234 3.51231 23.218 4.12975L39.718 18.7964C40.4748 19.4691 40.5429 20.6279 39.8703 21.3847C39.1976 22.1414 38.0388 22.2096 37.282 21.5369L36.6667 20.99V36.6667C36.6667 38.6917 35.0251 40.3333 33 40.3333H11C8.97497 40.3333 7.33334 38.6917 7.33334 36.6667V20.99L6.71801 21.5369C5.96124 22.2096 4.80244 22.1414 4.12976 21.3847C3.45708 20.6279 3.52524 19.4691 4.28201 18.7964L20.782 4.12975ZM11 17.7307V36.6667H16.5V23.8333C16.5 21.8083 18.1416 20.1667 20.1667 20.1667H23.8333C25.8584 20.1667 27.5 21.8083 27.5 23.8333V36.6667H33V17.7307L22 7.95292L11 17.7307ZM23.8333 36.6667V23.8333H20.1667V36.6667H23.8333Z" fill="white"/>
</svg>
