<svg width="36" height="32" viewBox="0 0 36 32" fill="none" xmlns="http://www.w3.org/2000/svg">
<path fill-rule="evenodd" clip-rule="evenodd" d="M18 3.55556H32.4L32.3999 7.11111H18C16.549 7.11111 15.2913 6.4637 14.6393 6.10392C13.9221 5.70816 13.1765 5.20787 12.5812 4.80849L12.4493 4.72003C11.7594 4.25772 11.2426 3.91915 10.8055 3.687C10.6856 3.62327 10.597 3.58172 10.5369 3.55556H3.6V10.6667H32.4L32.3999 7.11111L32.4 3.55556C34.3882 3.55556 36 5.14741 36 7.11111V28.4444C36 30.4081 34.3882 32 32.4 32H3.6C1.6118 32 0 30.4081 0 28.4444V3.55556C0 1.59185 1.6118 0 3.6 0H10.8C11.8188 0 13.2114 0.933625 14.5694 1.84404C15.8616 2.7103 17.1224 3.55556 18 3.55556ZM3.6 14.2222V28.4444H32.4V14.2222H3.6Z" fill="white"/>
</svg>
