<svg width="44" height="44" viewBox="0 0 44 44" fill="none" xmlns="http://www.w3.org/2000/svg">
<path fill-rule="evenodd" clip-rule="evenodd" d="M22 13.3894L19.5037 11.0692C18.2017 9.85906 16.4832 9.16667 14.5903 9.16667C10.5911 9.16667 7.33332 12.4272 7.33332 16.4085C7.33332 17.7996 7.91926 19.5686 9.20317 21.6593C10.463 23.7109 12.2195 25.7882 14.126 27.7208C17.199 30.8361 20.427 33.342 21.9849 34.4957C23.5425 33.2717 26.7859 30.6124 29.8743 27.4067C31.7885 25.4197 33.5545 23.3133 34.8209 21.2856C36.1287 19.1917 36.6667 17.5556 36.6667 16.4237C36.6667 12.4239 33.4056 9.16667 29.4097 9.16667C27.5168 9.16667 25.7982 9.85906 24.4963 11.0692L22 13.3894ZM20.6708 38.0728C18.9292 36.837 3.66666 25.7913 3.66666 16.4085C3.66666 10.3974 8.57082 5.5 14.5903 5.5C17.4014 5.5 20.0139 6.53745 22 8.3835C23.9861 6.53745 26.5986 5.5 29.4097 5.5C35.4292 5.5 40.3333 10.3974 40.3333 16.4237C40.3333 24.9827 25.1319 36.7302 23.3903 38.0423C22.9778 38.3474 22.4889 38.5 22 38.5C21.5264 38.5 21.068 38.3474 20.6708 38.0728Z" fill="white"/>
</svg>
