<svg width="39" height="39" viewBox="0 0 39 39" fill="none" xmlns="http://www.w3.org/2000/svg">
<path fill-rule="evenodd" clip-rule="evenodd" d="M9.75 13C12.4424 13 14.625 10.8174 14.625 8.125C14.625 5.43261 12.4424 3.25 9.75 3.25C7.05761 3.25 4.875 5.43261 4.875 8.125C4.875 10.8174 7.05761 13 9.75 13ZM9.75 9.75C10.6475 9.75 11.375 9.02246 11.375 8.125C11.375 7.22754 10.6475 6.5 9.75 6.5C8.85254 6.5 8.125 7.22754 8.125 8.125C8.125 9.02246 8.85254 9.75 9.75 9.75Z" fill="white"/>
<path fill-rule="evenodd" clip-rule="evenodd" d="M24.6524 21.125C25.3216 23.0184 27.1274 24.375 29.25 24.375C31.9424 24.375 34.125 22.1924 34.125 19.5C34.125 16.8076 31.9424 14.625 29.25 14.625C27.1274 14.625 25.3216 15.9816 24.6524 17.875H6.5C5.60254 17.875 4.875 18.6025 4.875 19.5C4.875 20.3975 5.60254 21.125 6.5 21.125H24.6524ZM29.25 21.125C30.1475 21.125 30.875 20.3975 30.875 19.5C30.875 18.6025 30.1475 17.875 29.25 17.875C28.3525 17.875 27.625 18.6025 27.625 19.5C27.625 20.3975 28.3525 21.125 29.25 21.125Z" fill="white"/>
<path fill-rule="evenodd" clip-rule="evenodd" d="M17.875 35.75C15.7524 35.75 13.9466 34.3934 13.2774 32.5H6.5C5.60254 32.5 4.875 31.7725 4.875 30.875C4.875 29.9775 5.60254 29.25 6.5 29.25H13.2774C13.9466 27.3566 15.7524 26 17.875 26C20.5674 26 22.75 28.1826 22.75 30.875C22.75 33.5674 20.5674 35.75 17.875 35.75ZM19.5 30.875C19.5 31.7725 18.7725 32.5 17.875 32.5C16.9775 32.5 16.25 31.7725 16.25 30.875C16.25 29.9775 16.9775 29.25 17.875 29.25C18.7725 29.25 19.5 29.9775 19.5 30.875Z" fill="white"/>
<path d="M17.875 8.125C17.875 7.22754 18.6025 6.5 19.5 6.5L32.5 6.5C33.3975 6.5 34.125 7.22754 34.125 8.125C34.125 9.02246 33.3975 9.75 32.5 9.75L19.5 9.75C18.6025 9.75 17.875 9.02246 17.875 8.125Z" fill="white"/>
<path d="M27.625 29.25C26.7275 29.25 26 29.9775 26 30.875C26 31.7725 26.7275 32.5 27.625 32.5H32.5C33.3975 32.5 34.125 31.7725 34.125 30.875C34.125 29.9775 33.3975 29.25 32.5 29.25H27.625Z" fill="white"/>
</svg>
